# xmcd
#
# Track frame offsets:
#	150
#	13531
#	28884
#	43058
#	57462
#	71722
#	85993
#	100402
#	113105
#	127212
#	141840
#	155500
#	169994
#	184866
#	198911
#	212763
#	226718
#	240706
#	255064
#	269152
#	282975
#	297018
#	311383
#
# Disc length: 4341 seconds
# Revision: 0
# Processed by: cddbd v1.5.2PL0 Copyright (c) Steve Scherf et al.
# Submitted via: dBpowerAMP V12.0
#
DISCID=5810f317
DTITLE=Charlie Patton - The Best Of Charlie Patton
DYEAR=1929
DGENRE=Blues
TTITLE0=Down The Dirt Road Blues
TTITLE1=It Won't Be Long
TTITLE2=High Water Everywhere - Part 1
TTITLE3=High Sheriff Blues
TTITLE4=Mississippi Bo Weavil Blues
TTITLE5=Lord I'm Discouraged
TTITLE6=Shake It And Break It
TTITLE7=Rattlesnake Blues
TTITLE8=Screamin' And Hollerin' The Blues
TTITLE9=A Spoonful Blues
TTITLE10=Pony Blues
TTITLE11=Magnolia Blues
TTITLE12=Moon Going Down
TTITLE13=I'm Goin' Home
TTITLE14=Elder Green Blues
TTITLE15=Jim Lee Blues - Part 1
TTITLE16=Banty Rooster Blues
TTITLE17=Jersey Bull Blues
TTITLE18=I Shall Not Be Moved
TTITLE19=Going To Move To Alabama
TTITLE20=Pea Vine Blues
TTITLE21=Green River Blues
TTITLE22=Bird Nest Bound
EXTD=
EXTT0=
EXTT1=
EXTT2=
EXTT3=
EXTT4=
EXTT5=
EXTT6=
EXTT7=
EXTT8=
EXTT9=
EXTT10=
EXTT11=
EXTT12=
EXTT13=
EXTT14=
EXTT15=
EXTT16=
EXTT17=
EXTT18=
EXTT19=
EXTT20=
EXTT21=
EXTT22=
PLAYORDER=
